<svg width="80" height="70" xmlns="http://www.w3.org/2000/svg" xmlns:svg="http://www.w3.org/2000/svg" preserveAspectRatio="xMidYMid meet" version="1.0">
	<style>
		path { fill: #000000; } /* Default color (Light Mode) */
		@media (prefers-color-scheme: dark) {
		  path { fill: #ffffff; } /* Dark Mode color */
		}
	</style>
	<g id="svg_7" transform="translate(79.0198 0.551597) scale(1.00565 1) translate(-79.0198 -0.551597) translate(2.08419 0.551597) matrix(0.131444 0 0 0.103472 0.444676 0.434347)">
		<path d="m281.8,2.58c-2.6,1.5 -10.3,5.8 -17,9.6c-6.8,3.8 -13.6,7.8 -15.2,8.9c-1.7,1.2 -4.4,2.8 -6,3.7c-11.2,6 -26.7,14.8 -32.6,18.6c-1.9,1.2 -6.9,4.1 -11,6.4c-4.1,2.3 -9.1,5.2 -11,6.3c-4.5,2.6 -12.9,7.5 -18.9,10.8c-4.4,2.5 -18.3,10.6 -26.6,15.6c-2.2,1.3 -5.8,3.3 -8,4.4c-2.2,1.1 -6.5,3.5 -9.5,5.4c-3,1.9 -7.3,4.4 -9.5,5.5c-2.2,1.2 -6.9,3.9 -10.5,6.1c-3.6,2.1 -7.8,4.6 -9.5,5.4c-1.6,0.8 -5.5,3.1 -8.5,4.9c-3,1.9 -11.3,6.7 -18.4,10.8c-7.1,4 -14.5,8.2 -16.5,9.4c-2,1.1 -6.2,3.6 -9.4,5.5c-8.2,4.8 -14.4,8.5 -20.1,11.6c-21.3,12.1 -21.5,12.2 -22.6,16.1c-1.4,5.1 -1.3,61.7 0.1,64.4c1.6,2.9 4.9,1.9 15.5,-4.5c4.9,-2.9 12.7,-7.5 17.4,-10.1c4.7,-2.6 12.6,-7.2 17.5,-10.2c5,-2.9 11.3,-6.5 14,-7.9c6.1,-3.1 11.1,-5.9 12.7,-7.3c0.7,-0.5 3.3,-2.1 5.8,-3.5c7.5,-4.1 26.2,-14.7 41.5,-23.7c5.5,-3.2 15.6,-9 22.5,-13c6.9,-3.9 17,-9.7 22.5,-12.9c8.8,-5.2 15.6,-9.1 33.4,-19.2c2.5,-1.4 6.9,-4 9.6,-5.7c2.8,-1.8 6.6,-4 8.5,-5c4.2,-2.1 16.7,-9.3 23.2,-13.4c3.5,-2.2 5.6,-2.8 8.5,-2.6l3.8,0.3l0.5,276c0.4,216 0.8,276.5 1.7,278.1c0.7,1.2 4.7,4.2 8.9,6.5c4.2,2.4 9.7,5.7 12.2,7.2c6.3,3.7 12.4,3.3 18.8,-1.2c2.4,-1.7 5.9,-3.8 7.7,-4.6c6.1,-2.9 11.1,-6.4 11.8,-8.2c0.4,-1 0.8,-125.4 0.8,-276.4c0.1,-218 0.4,-274.8 1.4,-276.1c2.5,-3.2 5,-2.9 13.2,1.9c17.3,10 27.2,15.7 31,17.8c6,3.3 30.2,17.3 36.5,21c3,1.8 10.2,6 16,9.3c5.8,3.3 17.7,10.1 26.5,15.3c8.8,5.1 21,12 27,15.4c6.1,3.4 15.1,8.6 20,11.5c5,2.9 13.1,7.7 18,10.5c5,2.9 13.1,7.6 18,10.5c5,3 10.8,6.3 13,7.6c6.8,3.7 22.8,13 26.5,15.2c1.9,1.2 4.7,2.2 6.2,2.2c5.3,0 5.5,-1.6 5.4,-34.5c-0.1,-26.7 -0.3,-30.4 -1.8,-32.7c-1.5,-2.3 -10.5,-8 -21.2,-13.6c-1.5,-0.8 -5.6,-3.2 -9,-5.3c-3.3,-2.1 -9.5,-5.7 -13.6,-7.9c-4.1,-2.3 -10.4,-5.8 -14,-8c-3.6,-2.2 -8.3,-4.9 -10.5,-6c-2.2,-1.1 -6.5,-3.6 -9.5,-5.5c-3,-1.8 -7.1,-4.3 -9,-5.3c-1.9,-1.1 -7.5,-4.3 -12.5,-7.1c-4.9,-2.9 -10.3,-6 -12,-6.9c-1.6,-0.9 -6.8,-3.9 -11.5,-6.7c-4.7,-2.7 -9.7,-5.7 -11.2,-6.5c-1.4,-0.8 -4.8,-2.8 -7.5,-4.3c-2.6,-1.5 -7,-4 -9.8,-5.6c-2.7,-1.5 -9,-5.2 -14,-8.1c-4.9,-2.9 -15.5,-9 -23.5,-13.5c-22.3,-12.6 -29.3,-16.6 -32,-18.5c-1.4,-0.9 -5.6,-3.4 -9.5,-5.5c-3.8,-2.2 -9.2,-5.3 -12,-7.1c-2.7,-1.7 -8.6,-5 -13,-7.4c-4.4,-2.3 -8.7,-4.8 -9.5,-5.5c-0.8,-0.7 -3.1,-2.1 -5.1,-3.1c-2,-1.1 -6.4,-3.4 -9.7,-5.2c-7.4,-3.9 -9.3,-3.9 -15.4,-0.4z" id="svg_3"/>
		<path d="m213.5,149.48c-9.1,5.5 -17.5,10.3 -30.7,17.7c-2.4,1.3 -9.9,5.6 -16.8,9.6c-6.9,4 -16.8,9.8 -22,12.8c-5.2,3 -13.1,7.6 -17.5,10.2c-12.9,7.6 -21.2,12.4 -25.3,14.5c-2,1.1 -6.6,3.8 -10.1,5.9c-3.5,2.2 -8.1,4.9 -10.1,6c-11.6,6.5 -24.1,13.6 -36,20.6c-7.4,4.3 -19.8,11.4 -27.4,15.7c-9.6,5.4 -14.5,8.7 -15.8,10.8c-1.7,2.9 -1.8,8.1 -1.8,113.4l0,110.4l3.3,3.1c1.8,1.7 8.3,5.8 14.3,9c6,3.3 12,6.7 13.4,7.6c6.6,4.4 19.2,11 20.9,11c1.1,0 2.6,-0.3 3.5,-0.6c1.5,-0.6 1.6,-11.1 1.6,-206.3l0,-7.4l4.2,-3.9c2.3,-2.1 4.7,-3.8 5.3,-3.8c0.7,0 3,-1.2 5.1,-2.6c5,-3.4 9.1,-4.6 11.5,-3.3c1.8,0.9 1.9,4.8 1.9,123.9l0,122.8l3.8,3c2,1.6 5.3,3.7 7.2,4.7c1.9,1 4.6,2.6 6,3.5c4.3,2.9 21.5,13 22.2,13c0.4,0 2.9,1.4 5.5,3c3.9,2.5 10.3,4 11.5,2.7c0.2,-0.1 0.5,-70.5 0.8,-156.3c0.5,-152 0.6,-156.2 2.4,-158.3c1.1,-1.2 5.6,-4.1 10.2,-6.6c7.9,-4.3 13.6,-5.7 14.9,-3.5c0.3,0.6 0.6,77.7 0.6,171.4l0,170.4l2.7,3.5c1.5,2 5,4.8 7.7,6.2c2.8,1.4 9.1,5 14,8c13.1,7.8 24.7,14.2 27.3,15c5.6,1.7 5.2,18.5 5.2,-239.9c0,-183.9 -0.3,-238.5 -1.2,-239.4c-2.1,-2.1 -6.1,-1.3 -12.3,2.5z" id="svg_4"/>
		<path d="m352.1,147.18c-0.8,1 -1.1,63.9 -1.1,238.9c0,216 0.2,237.7 1.6,239.2c2.2,2.2 6.6,0.7 18.4,-6.4c3.6,-2.2 12.4,-7.3 19.5,-11.4c7.2,-4 17.1,-9.7 22,-12.7c5,-2.9 10.8,-6.3 13,-7.5c2.2,-1.2 7.4,-4.2 11.5,-6.6c12.1,-7.1 13.1,-7.7 21.8,-12.7c12.6,-7.2 14.9,-8.5 25.7,-14.7c5.5,-3.2 14.3,-8.2 19.5,-11.2c5.2,-3 11.8,-6.8 14.5,-8.5c2.8,-1.7 7.3,-4.3 10,-5.8c2.8,-1.4 9.1,-5 14,-8c5,-2.9 10.8,-6.2 13,-7.4c6.6,-3.7 8.7,-4.9 15.1,-8.9c5.4,-3.3 6.3,-4.3 7.2,-8c0.5,-2.4 0.9,-17.1 0.8,-34c-0.2,-26.7 -0.4,-29.9 -1.9,-31.5c-1.6,-1.5 -4.7,-1.7 -26.6,-2c-27.2,-0.4 -32.5,0.3 -33.5,4.1c-0.3,1.2 -0.6,8.4 -0.6,16l0,13.8l-3.1,2.8c-1.7,1.6 -4.3,3.5 -5.7,4.2c-2.7,1.3 -4.2,2.2 -25.7,14.6c-6.6,3.9 -13.3,7.7 -15,8.5c-1.6,0.8 -7.5,4.1 -13,7.3c-5.5,3.2 -10.9,6.3 -12,6.9c-1.1,0.6 -3.6,2 -5.5,3.2c-13.8,8.4 -17.8,10 -20.5,8c-1.3,-1 -1.5,-16.5 -1.5,-131.5c-0.1,-100.5 0.2,-130.6 1.1,-131.8c0.8,-0.9 2.1,-1.2 3.6,-0.8c2.5,0.6 27.8,14.7 53.8,30c8.2,4.8 21.4,12.3 29,16.4c9,5 12.8,7.6 13.6,9.8c0.5,1.3 0.9,8.7 0.9,16.3c0,13.6 0.1,14 2.4,15.5c2.1,1.4 6.4,1.6 29.1,1.5c15.9,0 27.5,-0.5 28.6,-1.1c1.8,-0.9 1.9,-2.6 2.1,-26.2c0.3,-31 0,-39.5 -1.6,-42.5c-1.3,-2.6 -4.4,-4.5 -18.1,-11.7c-4.9,-2.6 -9.7,-5.3 -10.6,-6.1c-0.9,-0.8 -3.5,-2.5 -5.8,-3.7c-6.7,-3.6 -28.9,-16.4 -39.6,-22.7c-5.5,-3.3 -11.8,-6.9 -14,-8c-2.2,-1.1 -6.5,-3.6 -9.5,-5.5c-3,-1.9 -7.1,-4.2 -9,-5.3c-1.9,-1 -8,-4.5 -13.5,-7.7c-9.7,-5.7 -14.2,-8.2 -23.5,-13.2c-2.5,-1.4 -5.2,-3.1 -6,-3.8c-0.8,-0.7 -3.1,-2 -5,-2.9c-1.9,-0.8 -6.4,-3.4 -10,-5.7c-3.6,-2.3 -9.6,-5.9 -13.5,-8c-3.8,-2.1 -9.2,-5.1 -11.9,-6.6c-2.6,-1.6 -6.9,-4 -9.5,-5.4c-2.5,-1.4 -7.8,-4.4 -11.8,-6.7c-7.5,-4.4 -11.3,-5.2 -13.2,-2.8z" id="svg_5"/>
	</g>
</svg>